<svg width="152" height="36" viewBox="0 0 152 36" fill="none" xmlns="http://www.w3.org/2000/svg">
<path d="M18.963 14.9808H22.8822C24.6145 14.9808 26.2762 14.2924 27.5012 13.0674C28.7263 11.8423 29.4144 10.181 29.4144 8.44852V5.3999H22.8822C21.1498 5.3999 19.4881 6.08825 18.2633 7.31331C17.0382 8.53842 16.3499 10.1997 16.3499 11.9322V14.5452C15.2207 13.6944 13.8444 13.2357 12.4307 13.2387H5.89844V16.287C5.89844 18.0197 6.58648 19.6811 7.81161 20.9061C9.03674 22.1311 10.6983 22.8193 12.4307 22.8193H16.3499V32.3999H18.963V28.916H22.8822C24.6145 28.916 26.2762 28.2276 27.5012 27.0025C28.7264 25.7778 29.4144 24.1161 29.4144 22.3837V19.3354H22.8822C21.4684 19.332 20.092 19.7907 18.963 20.6416V14.9808ZM18.963 11.9325V11.9322C18.963 10.8927 19.3758 9.89597 20.1109 9.16086C20.8457 8.42574 21.8427 8.01289 22.8822 8.01289H26.8014V8.4485H26.8017C26.8017 9.48798 26.3886 10.4847 25.6538 11.2198C24.9186 11.9549 23.9217 12.3678 22.8821 12.3678H18.9629L18.963 11.9325ZM12.4307 20.2067C11.3912 20.2067 10.3942 19.7935 9.65907 19.0587C8.92426 18.3236 8.51111 17.3266 8.51111 16.2871V15.8518H12.4306C13.4701 15.8518 14.4671 16.2646 15.2019 16.9997C15.937 17.7346 16.3499 18.7316 16.3499 19.7711V20.2067L12.4307 20.2067ZM22.8823 21.9484H26.8015V22.3841H26.8018C26.8018 23.4235 26.3887 24.4206 25.6538 25.1554C24.9187 25.8905 23.9218 26.3033 22.8822 26.3033H18.963V25.868C18.963 24.8285 19.3758 23.8315 20.111 23.0964C20.8458 22.3616 21.8428 21.9484 22.8823 21.9484L22.8823 21.9484Z" fill="#2B2F34"/>
<path d="M48.66 6.008C49.4573 5.852 50.2287 5.73067 50.974 5.644C51.7193 5.54 52.5687 5.488 53.522 5.488C54.926 5.488 56.0787 5.70467 56.98 6.138C57.8987 6.554 58.5833 7.10867 59.034 7.802C59.4847 8.478 59.71 9.206 59.71 9.986C59.71 11.1647 59.3807 12.1267 58.722 12.872C58.0633 13.6 57.0927 14.1547 55.81 14.536C56.7807 14.9 57.578 15.42 58.202 16.096C58.826 16.772 59.138 17.6473 59.138 18.722C59.138 19.97 58.7653 21.01 58.02 21.842C57.2747 22.674 56.2867 23.298 55.056 23.714C53.8427 24.1127 52.5253 24.312 51.104 24.312C49.8733 24.312 48.7987 24.2167 47.88 24.026C46.9613 23.8527 46.1987 23.6707 45.592 23.48L48.66 6.008ZM53.418 7.438C52.8807 7.438 52.404 7.45533 51.988 7.49C51.572 7.52467 51.1907 7.57667 50.844 7.646L49.778 13.652H52.326C54.0073 13.652 55.2553 13.3227 56.07 12.664C56.8847 11.988 57.292 11.208 57.292 10.324C57.292 9.50933 56.9627 8.82467 56.304 8.27C55.6627 7.71533 54.7007 7.438 53.418 7.438ZM49.44 15.576L48.348 21.894C49.2667 22.1367 50.246 22.258 51.286 22.258C52.9847 22.258 54.2933 21.9373 55.212 21.296C56.148 20.6373 56.616 19.8053 56.616 18.8C56.616 18.2107 56.4513 17.6733 56.122 17.188C55.7927 16.7027 55.264 16.3127 54.536 16.018C53.8253 15.7233 52.8807 15.576 51.702 15.576H49.44ZM67.3329 24.312C66.1889 24.312 65.1749 24.0693 64.2909 23.584C63.4242 23.0813 62.7395 22.3707 62.2369 21.452C61.7515 20.516 61.5089 19.4153 61.5089 18.15C61.5089 16.7113 61.8035 15.3853 62.3929 14.172C62.9995 12.9587 63.8489 11.988 64.9409 11.26C66.0502 10.532 67.3415 10.168 68.8149 10.168C69.8202 10.168 70.6695 10.3587 71.3629 10.74C72.0735 11.1213 72.6195 11.6153 73.0009 12.222C73.3822 12.8287 73.5729 13.4787 73.5729 14.172C73.5729 15.1253 73.3475 15.914 72.8969 16.538C72.4462 17.162 71.8655 17.6473 71.1549 17.994C70.4442 18.3233 69.6729 18.5573 68.8409 18.696C68.0262 18.8347 67.2462 18.904 66.5009 18.904C66.0329 18.904 65.5649 18.8867 65.0969 18.852C64.6462 18.8 64.2475 18.748 63.9009 18.696C64.0395 19.84 64.4469 20.7153 65.1229 21.322C65.7989 21.9287 66.6655 22.232 67.7229 22.232C68.5895 22.232 69.3609 22.1193 70.0369 21.894C70.7129 21.6687 71.2849 21.4433 71.7529 21.218L71.9609 23.298C71.4409 23.5407 70.7822 23.7747 69.9849 24C69.1875 24.208 68.3035 24.312 67.3329 24.312ZM68.6329 12.144C67.8182 12.144 67.0815 12.352 66.4229 12.768C65.7642 13.1667 65.2182 13.7213 64.7849 14.432C64.3689 15.1253 64.0915 15.9227 63.9529 16.824C64.3515 16.8933 64.7502 16.954 65.1489 17.006C65.5649 17.0407 66.0155 17.058 66.5009 17.058C67.9569 17.058 69.1095 16.8587 69.9589 16.46C70.8082 16.044 71.2329 15.342 71.2329 14.354C71.2329 13.7473 70.9902 13.2273 70.5049 12.794C70.0369 12.3607 69.4129 12.144 68.6329 12.144ZM83.5459 10.168C84.5686 10.168 85.4699 10.272 86.2499 10.48C87.0299 10.688 87.6712 10.896 88.1739 11.104L85.9119 24.156C85.7039 25.352 85.3832 26.3313 84.9499 27.094C84.5339 27.8567 84.0399 28.446 83.4679 28.862C82.9132 29.2953 82.3239 29.5987 81.6999 29.772C81.0759 29.9453 80.4606 30.032 79.8539 30.032C78.6752 30.032 77.6699 29.7893 76.8379 29.304C76.0232 28.8187 75.3559 28.2553 74.8359 27.614L76.6559 26.262C77.5052 27.4233 78.6232 28.004 80.0099 28.004C80.8766 28.004 81.6392 27.6833 82.2979 27.042C82.9566 26.4007 83.4246 25.3087 83.7019 23.766L84.1439 21.218C83.6586 21.998 83.0519 22.6567 82.3239 23.194C81.6132 23.7313 80.8072 24 79.9059 24C79.0739 24 78.2766 23.792 77.5139 23.376C76.7686 22.96 76.1532 22.3533 75.6679 21.556C75.1999 20.7587 74.9659 19.7793 74.9659 18.618C74.9659 16.9367 75.3386 15.4633 76.0839 14.198C76.8292 12.9327 77.8519 11.9447 79.1519 11.234C80.4519 10.5233 81.9166 10.168 83.5459 10.168ZM77.3579 18.358C77.3579 19.138 77.5052 19.7967 77.7999 20.334C78.1119 20.854 78.5106 21.2527 78.9959 21.53C79.4812 21.79 79.9926 21.92 80.5299 21.92C81.1886 21.92 81.8126 21.686 82.4019 21.218C82.9912 20.75 83.5026 20.0913 83.9359 19.242C84.3866 18.3927 84.7159 17.396 84.9239 16.252L85.5999 12.482C85.2706 12.378 84.9239 12.3 84.5599 12.248C84.1959 12.1787 83.7712 12.144 83.2859 12.144C82.1246 12.144 81.0932 12.4213 80.1919 12.976C79.3079 13.5133 78.6146 14.25 78.1119 15.186C77.6092 16.122 77.3579 17.1793 77.3579 18.358ZM94.0538 8.166C93.5684 8.166 93.1958 8.02733 92.9358 7.75C92.6931 7.45533 92.5718 7.11733 92.5718 6.736C92.5718 6.18133 92.7451 5.73933 93.0918 5.41C93.4384 5.06333 93.8718 4.89 94.3918 4.89C94.8771 4.89 95.2411 5.03733 95.4838 5.332C95.7438 5.60933 95.8738 5.93867 95.8738 6.32C95.8738 6.85733 95.7004 7.29933 95.3538 7.646C95.0071 7.99267 94.5738 8.166 94.0538 8.166ZM92.3118 24H89.9718L92.3378 10.48H94.6778L92.3118 24ZM105.126 12.222C104.519 12.222 103.861 12.4473 103.15 12.898C102.439 13.3487 101.781 14.0507 101.174 15.004C100.585 15.94 100.16 17.1447 99.9001 18.618L98.9641 24H96.6241L98.9901 10.48H101.252L100.68 13.6C101.217 12.56 101.937 11.728 102.838 11.104C103.757 10.48 104.719 10.168 105.724 10.168C106.903 10.168 107.847 10.532 108.558 11.26C109.269 11.9707 109.624 12.846 109.624 13.886C109.624 14.3193 109.572 14.8653 109.468 15.524L107.986 24H105.646L107.076 15.914C107.163 15.498 107.215 15.1947 107.232 15.004C107.249 14.796 107.258 14.6053 107.258 14.432C107.258 13.756 107.059 13.2187 106.66 12.82C106.279 12.4213 105.767 12.222 105.126 12.222ZM120.437 12.222C119.83 12.222 119.171 12.4473 118.461 12.898C117.75 13.3487 117.091 14.0507 116.485 15.004C115.895 15.94 115.471 17.1447 115.211 18.618L114.275 24H111.935L114.301 10.48H116.563L115.991 13.6C116.528 12.56 117.247 11.728 118.149 11.104C119.067 10.48 120.029 10.168 121.035 10.168C122.213 10.168 123.158 10.532 123.869 11.26C124.579 11.9707 124.935 12.846 124.935 13.886C124.935 14.3193 124.883 14.8653 124.779 15.524L123.297 24H120.957L122.387 15.914C122.473 15.498 122.525 15.1947 122.543 15.004C122.56 14.796 122.569 14.6053 122.569 14.432C122.569 13.756 122.369 13.2187 121.971 12.82C121.589 12.4213 121.078 12.222 120.437 12.222ZM133.069 24.312C131.925 24.312 130.911 24.0693 130.027 23.584C129.161 23.0813 128.476 22.3707 127.973 21.452C127.488 20.516 127.245 19.4153 127.245 18.15C127.245 16.7113 127.54 15.3853 128.129 14.172C128.736 12.9587 129.585 11.988 130.677 11.26C131.787 10.532 133.078 10.168 134.551 10.168C135.557 10.168 136.406 10.3587 137.099 10.74C137.81 11.1213 138.356 11.6153 138.737 12.222C139.119 12.8287 139.309 13.4787 139.309 14.172C139.309 15.1253 139.084 15.914 138.633 16.538C138.183 17.162 137.602 17.6473 136.891 17.994C136.181 18.3233 135.409 18.5573 134.577 18.696C133.763 18.8347 132.983 18.904 132.237 18.904C131.769 18.904 131.301 18.8867 130.833 18.852C130.383 18.8 129.984 18.748 129.637 18.696C129.776 19.84 130.183 20.7153 130.859 21.322C131.535 21.9287 132.402 22.232 133.459 22.232C134.326 22.232 135.097 22.1193 135.773 21.894C136.449 21.6687 137.021 21.4433 137.489 21.218L137.697 23.298C137.177 23.5407 136.519 23.7747 135.721 24C134.924 24.208 134.04 24.312 133.069 24.312ZM134.369 12.144C133.555 12.144 132.818 12.352 132.159 12.768C131.501 13.1667 130.955 13.7213 130.521 14.432C130.105 15.1253 129.828 15.9227 129.689 16.824C130.088 16.8933 130.487 16.954 130.885 17.006C131.301 17.0407 131.752 17.058 132.237 17.058C133.693 17.058 134.846 16.8587 135.695 16.46C136.545 16.044 136.969 15.342 136.969 14.354C136.969 13.7473 136.727 13.2273 136.241 12.794C135.773 12.3607 135.149 12.144 134.369 12.144ZM142.808 14.276C142.826 14.1893 142.834 14.094 142.834 13.99C142.852 13.8687 142.86 13.7473 142.86 13.626C142.86 13.1407 142.722 12.8027 142.444 12.612C142.167 12.404 141.803 12.3 141.352 12.3L142.158 10.48C143.077 10.48 143.779 10.7053 144.264 11.156C144.767 11.5893 145.018 12.2393 145.018 13.106V13.626C145.521 12.3953 146.162 11.5113 146.942 10.974C147.74 10.4367 148.641 10.168 149.646 10.168C150.045 10.168 150.383 10.2027 150.66 10.272C150.955 10.324 151.198 10.3933 151.388 10.48L150.348 12.768C150.14 12.6813 149.924 12.6207 149.698 12.586C149.473 12.5513 149.213 12.534 148.918 12.534C148.294 12.534 147.67 12.7593 147.046 13.21C146.44 13.6433 145.885 14.3713 145.382 15.394C144.897 16.4167 144.498 17.8207 144.186 19.606L143.432 24H141.092L142.808 14.276Z" fill="#2B2F34"/>
</svg>
