<svg width="417" height="16" viewBox="0 0 417 16" fill="none" xmlns="http://www.w3.org/2000/svg">
<path d="M2.62111 0.999999H4.52111L2.36111 13.3H8.78111L8.48111 15H0.161106L2.62111 0.999999ZM14.4164 0.999999H22.7164L22.4364 2.64H16.0164L15.2764 6.9H20.7764L20.4964 8.5H14.9964L14.1364 13.36H20.5364L20.2564 15H11.9564L14.4164 0.999999ZM22.9963 14.26L30.6763 0.999999H32.8163L35.8763 14.78L34.0563 15.2L33.2163 11.2H26.7363L24.5163 15.16L22.9963 14.26ZM27.6363 9.6H32.8763L31.4563 2.86L27.6363 9.6ZM41.698 1.2C42.298 1.09333 42.858 1.00667 43.378 0.94C43.9113 0.873333 44.5313 0.84 45.238 0.84C46.2513 0.84 47.1046 1 47.798 1.32C48.4913 1.64 49.018 2.07333 49.378 2.62C49.738 3.15333 49.918 3.74667 49.918 4.4C49.918 5.61333 49.5313 6.52667 48.758 7.14C47.9846 7.75333 46.9646 8.15333 45.698 8.34C46.2446 8.58 46.6713 8.88 46.978 9.24C47.2846 9.58667 47.5246 9.95333 47.698 10.34C47.8713 10.7267 48.0113 11.1067 48.118 11.48C48.238 11.8533 48.3646 12.1933 48.498 12.5C48.6313 12.8067 48.818 13.0533 49.058 13.24C49.3113 13.4133 49.658 13.5 50.098 13.5L49.398 15.14C48.8113 15.14 48.338 15.0267 47.978 14.8C47.618 14.5733 47.3246 14.28 47.098 13.92C46.8846 13.5467 46.6913 13.14 46.518 12.7C46.358 12.2467 46.1846 11.8 45.998 11.36C45.8113 10.9067 45.5713 10.5 45.278 10.14C44.9846 9.76667 44.5913 9.46667 44.098 9.24C43.618 9.01333 42.998 8.9 42.238 8.9L41.158 15H39.258L41.698 1.2ZM45.118 2.42C44.7713 2.42 44.4513 2.43333 44.158 2.46C43.878 2.48667 43.6113 2.52667 43.358 2.58L42.518 7.3H44.178C45.3513 7.3 46.2846 7.06 46.978 6.58C47.6846 6.1 48.038 5.45333 48.038 4.64C48.038 3.98667 47.778 3.45333 47.258 3.04C46.7513 2.62667 46.038 2.42 45.118 2.42ZM57.1199 3.32L55.0799 15H53.2799L55.7399 0.999999H58.2599L62.3599 12.76L64.4399 0.999999H66.2399L63.7799 15H61.2999L57.1199 3.32ZM78.9789 0.999999H87.1789L86.8989 2.64H80.5789L79.8389 6.92H85.0789L84.7989 8.48H79.5589L78.4189 15H76.5189L78.9789 0.999999ZM99.1157 15.1C98.3823 15.1 97.8223 14.9267 97.4357 14.58C97.049 14.22 96.8557 13.6667 96.8557 12.92V12.48C96.3223 13.32 95.689 13.9933 94.9556 14.5C94.2356 14.9933 93.3823 15.24 92.3956 15.24C91.7156 15.24 91.089 15.0933 90.5156 14.8C89.9556 14.5067 89.5023 14.0733 89.1556 13.5C88.8223 12.9133 88.6556 12.2067 88.6556 11.38C88.6556 11.0733 88.669 10.7933 88.6956 10.54C88.7223 10.2733 88.7623 9.98 88.8156 9.66L90.2956 0.999999H92.1956L90.6556 10.08C90.6156 10.32 90.589 10.5267 90.5756 10.7C90.5623 10.86 90.5556 11.04 90.5556 11.24C90.5556 11.96 90.769 12.5333 91.1956 12.96C91.6223 13.3733 92.2023 13.58 92.9356 13.58C93.549 13.58 94.1556 13.3933 94.7556 13.02C95.369 12.6467 95.9023 12.1 96.3556 11.38C96.8223 10.66 97.1423 9.78667 97.3157 8.76L98.6956 0.999999H100.596L98.6357 12.08C98.6223 12.1467 98.609 12.2267 98.5956 12.32C98.5956 12.4 98.5956 12.4867 98.5956 12.58C98.5956 12.94 98.6956 13.2 98.8956 13.36C99.109 13.52 99.4023 13.6 99.7757 13.6L99.1157 15.1ZM105.929 0.999999H107.829L105.669 13.3H112.089L111.789 15H103.469L105.929 0.999999ZM117.724 0.999999H119.624L117.464 13.3H123.884L123.584 15H115.264L117.724 0.999999ZM127.158 8.96L127.458 7.32H134.258L133.958 8.96H127.158ZM145.93 11.46C145.93 11.0867 145.85 10.7467 145.69 10.44C145.544 10.1333 145.27 9.82 144.87 9.5C144.47 9.16667 143.897 8.79333 143.15 8.38C142.11 7.79333 141.37 7.21333 140.93 6.64C140.504 6.06667 140.29 5.33333 140.29 4.44C140.29 3.69333 140.484 3.04667 140.87 2.5C141.27 1.95333 141.824 1.52667 142.53 1.22C143.237 0.913333 144.05 0.76 144.97 0.76C145.81 0.76 146.57 0.866666 147.25 1.08C147.93 1.28 148.564 1.55333 149.15 1.9L148.17 3.46C147.69 3.15333 147.184 2.9 146.65 2.7C146.13 2.5 145.517 2.4 144.81 2.4C144.024 2.4 143.39 2.57333 142.91 2.92C142.43 3.25333 142.19 3.69333 142.19 4.24C142.19 4.73333 142.357 5.17333 142.69 5.56C143.037 5.93333 143.67 6.36667 144.59 6.86C145.47 7.32667 146.144 7.78667 146.61 8.24C147.09 8.68 147.417 9.14667 147.59 9.64C147.777 10.1333 147.87 10.68 147.87 11.28C147.87 12.0933 147.657 12.8 147.23 13.4C146.817 13.9867 146.237 14.44 145.49 14.76C144.744 15.08 143.877 15.24 142.89 15.24C141.93 15.24 141.064 15.1133 140.29 14.86C139.517 14.5933 138.837 14.2267 138.25 13.76L139.49 12.22C139.944 12.6333 140.47 12.9667 141.07 13.22C141.684 13.46 142.357 13.58 143.09 13.58C143.957 13.58 144.644 13.3933 145.15 13.02C145.67 12.6333 145.93 12.1133 145.93 11.46ZM152.431 0.999999H162.931L162.631 2.68H158.331L156.171 15H154.271L156.431 2.68H152.131L152.431 0.999999ZM161.514 14.26L169.194 0.999999H171.334L174.394 14.78L172.574 15.2L171.734 11.2H165.254L163.034 15.16L161.514 14.26ZM166.154 9.6H171.394L169.974 2.86L166.154 9.6ZM184.353 2.42C183.379 2.42 182.499 2.71333 181.713 3.3C180.926 3.87333 180.299 4.66667 179.833 5.68C179.366 6.68 179.133 7.83333 179.133 9.14C179.133 10.58 179.486 11.68 180.193 12.44C180.899 13.2 181.799 13.58 182.893 13.58C183.519 13.58 184.073 13.4933 184.553 13.32C185.046 13.1467 185.526 12.94 185.993 12.7L186.313 14.42C185.819 14.6467 185.273 14.84 184.673 15C184.073 15.16 183.393 15.24 182.633 15.24C181.539 15.24 180.579 15.0067 179.753 14.54C178.939 14.0733 178.306 13.4 177.853 12.52C177.399 11.6267 177.173 10.5467 177.173 9.28C177.173 8.08 177.346 6.96667 177.693 5.94C178.053 4.9 178.559 3.99333 179.213 3.22C179.866 2.44667 180.639 1.84667 181.533 1.42C182.439 0.98 183.433 0.76 184.513 0.76C185.299 0.76 185.993 0.866666 186.593 1.08C187.193 1.29333 187.693 1.51333 188.093 1.74L187.233 3.3C186.833 3.04667 186.406 2.84 185.953 2.68C185.513 2.50667 184.979 2.42 184.353 2.42ZM197.884 11.86C198.258 12.3133 198.571 12.66 198.824 12.9C199.091 13.14 199.338 13.3067 199.564 13.4C199.804 13.48 200.071 13.52 200.364 13.52L199.664 15.14C199.078 15.14 198.571 15.02 198.144 14.78C197.731 14.54 197.291 14.1267 196.824 13.54L192.904 8.54L191.764 15H189.864L192.324 0.999999H194.224L193.124 7.22L199.764 1.04L200.924 2.32L194.724 7.88L197.884 11.86ZM211.794 1.06L213.754 0.86L214.834 12.98L219.714 2.46H222.094L223.214 12.98L228.554 0.919999L230.234 1.7L224.074 15H221.714L220.574 4.48L215.674 15H213.314L211.794 1.06ZM233.882 0.999999H242.182L241.902 2.64H235.482L234.742 6.9H240.242L239.962 8.5H234.462L233.602 13.36H240.002L239.722 15H231.422L233.882 0.999999ZM246.222 1.16C246.835 1.04 247.429 0.946666 248.002 0.879999C248.575 0.8 249.229 0.76 249.962 0.76C251.042 0.76 251.929 0.926666 252.622 1.26C253.329 1.58 253.855 2.00667 254.202 2.54C254.549 3.06 254.722 3.62 254.722 4.22C254.722 5.12667 254.469 5.86667 253.962 6.44C253.455 7 252.709 7.42667 251.722 7.72C252.469 8 253.082 8.4 253.562 8.92C254.042 9.44 254.282 10.1133 254.282 10.94C254.282 11.9 253.995 12.7 253.422 13.34C252.849 13.98 252.089 14.46 251.142 14.78C250.209 15.0867 249.195 15.24 248.102 15.24C247.155 15.24 246.329 15.1667 245.622 15.02C244.915 14.8867 244.329 14.7467 243.862 14.6L246.222 1.16ZM249.882 2.26C249.469 2.26 249.102 2.27333 248.782 2.3C248.462 2.32667 248.169 2.36667 247.902 2.42L247.082 7.04H249.042C250.335 7.04 251.295 6.78667 251.922 6.28C252.549 5.76 252.862 5.16 252.862 4.48C252.862 3.85333 252.609 3.32667 252.102 2.9C251.609 2.47333 250.869 2.26 249.882 2.26ZM246.822 8.52L245.982 13.38C246.689 13.5667 247.442 13.66 248.242 13.66C249.549 13.66 250.555 13.4133 251.262 12.92C251.982 12.4133 252.342 11.7733 252.342 11C252.342 10.5467 252.215 10.1333 251.962 9.76C251.709 9.38667 251.302 9.08667 250.742 8.86C250.195 8.63333 249.469 8.52 248.562 8.52H246.822ZM267.742 1.16C268.288 1.04 268.835 0.946666 269.382 0.879999C269.928 0.8 270.602 0.76 271.402 0.76C272.468 0.76 273.375 0.926666 274.122 1.26C274.882 1.59333 275.502 2.05333 275.982 2.64C276.462 3.21333 276.815 3.87333 277.042 4.62C277.268 5.35333 277.382 6.12667 277.382 6.94C277.382 8.54 277.062 9.96667 276.422 11.22C275.782 12.4733 274.875 13.46 273.702 14.18C272.528 14.8867 271.128 15.24 269.502 15.24C268.648 15.24 267.888 15.18 267.222 15.06C266.555 14.9533 265.948 14.8 265.402 14.6L267.742 1.16ZM271.242 2.36C270.895 2.36 270.568 2.38 270.262 2.42C269.955 2.44667 269.668 2.49333 269.402 2.56L267.522 13.34C267.828 13.42 268.155 13.4867 268.502 13.54C268.848 13.58 269.222 13.6 269.622 13.6C270.782 13.6 271.795 13.3267 272.662 12.78C273.542 12.2333 274.222 11.4733 274.702 10.5C275.182 9.51333 275.422 8.38 275.422 7.1C275.422 6.26 275.275 5.48 274.982 4.76C274.688 4.04 274.235 3.46 273.622 3.02C273.008 2.58 272.215 2.36 271.242 2.36ZM282.723 0.999999H291.023L290.743 2.64H284.323L283.583 6.9H289.083L288.803 8.5H283.303L282.443 13.36H288.843L288.563 15H280.263L282.723 0.999999ZM293.203 1.18L295.103 0.779999L297.523 12.92L303.883 0.84L305.563 1.76L298.303 15H296.123L293.203 1.18ZM309.205 0.999999H317.505L317.225 2.64H310.805L310.065 6.9H315.565L315.285 8.5H309.785L308.925 13.36H315.325L315.045 15H306.745L309.205 0.999999ZM321.645 0.999999H323.545L321.385 13.3H327.805L327.505 15H319.185L321.645 0.999999ZM335.924 15.24C334.67 15.24 333.61 14.9667 332.744 14.42C331.877 13.8733 331.217 13.14 330.764 12.22C330.31 11.2867 330.084 10.2467 330.084 9.1C330.084 8.03333 330.25 7.00667 330.584 6.02C330.917 5.02 331.404 4.12667 332.044 3.34C332.697 2.54 333.49 1.91333 334.424 1.46C335.357 0.993333 336.424 0.76 337.624 0.76C338.877 0.76 339.937 1.03333 340.804 1.58C341.67 2.12667 342.33 2.86667 342.784 3.8C343.237 4.72 343.464 5.75333 343.464 6.9C343.464 7.96667 343.297 9 342.964 10C342.63 10.9867 342.137 11.88 341.484 12.68C340.844 13.4667 340.057 14.0933 339.124 14.56C338.19 15.0133 337.124 15.24 335.924 15.24ZM337.464 2.4C336.61 2.4 335.844 2.58 335.164 2.94C334.497 3.3 333.93 3.79333 333.464 4.42C332.997 5.04667 332.637 5.75333 332.384 6.54C332.144 7.32667 332.024 8.14 332.024 8.98C332.024 9.83333 332.177 10.6133 332.484 11.32C332.79 12.0133 333.244 12.5667 333.844 12.98C334.457 13.3933 335.204 13.6 336.084 13.6C336.937 13.6 337.697 13.42 338.364 13.06C339.044 12.7 339.617 12.2067 340.084 11.58C340.55 10.9533 340.904 10.2467 341.144 9.46C341.397 8.67333 341.524 7.86 341.524 7.02C341.524 6.16667 341.37 5.39333 341.064 4.7C340.757 3.99333 340.304 3.43333 339.704 3.02C339.104 2.60667 338.357 2.4 337.464 2.4ZM348.769 1.2C349.276 1.09333 349.816 1.00667 350.389 0.94C350.976 0.873333 351.623 0.84 352.329 0.84C353.409 0.84 354.309 1.03333 355.029 1.42C355.749 1.79333 356.283 2.29333 356.629 2.92C356.989 3.53333 357.169 4.19333 357.169 4.9C357.169 5.99333 356.903 6.91333 356.369 7.66C355.836 8.39333 355.103 8.95333 354.169 9.34C353.236 9.71333 352.176 9.9 350.989 9.9C350.669 9.9 350.349 9.88667 350.029 9.86C349.723 9.82 349.436 9.76667 349.169 9.7L348.249 15H346.349L348.769 1.2ZM352.129 2.42C351.769 2.42 351.449 2.43333 351.169 2.46C350.903 2.48667 350.656 2.52 350.429 2.56L349.449 8.1C349.716 8.18 350.003 8.24 350.309 8.28C350.629 8.30667 350.943 8.32 351.249 8.32C352.676 8.32 353.709 8.02 354.349 7.42C354.989 6.82 355.309 6.05333 355.309 5.12C355.309 4.33333 355.029 3.68667 354.469 3.18C353.923 2.67333 353.143 2.42 352.129 2.42ZM372.381 3.3L367.201 11.84H365.341L363.001 3.22L360.941 15H359.141L361.601 0.999999H364.181L366.541 9.92L371.821 0.999999H374.681L372.221 15H370.321L372.381 3.3ZM379.822 0.999999H388.122L387.842 2.64H381.422L380.682 6.9H386.182L385.902 8.5H380.402L379.542 13.36H385.942L385.662 15H377.362L379.822 0.999999ZM393.642 3.32L391.602 15H389.802L392.262 0.999999H394.782L398.882 12.76L400.962 0.999999H402.762L400.302 15H397.822L393.642 3.32ZM406.445 0.999999H416.945L416.645 2.68H412.345L410.185 15H408.285L410.445 2.68H406.145L406.445 0.999999Z" fill="url(#paint0_linear_0_1322)"/>
<defs>
<linearGradient id="paint0_linear_0_1322" x1="1056" y1="21" x2="1028.73" y2="-205.241" gradientUnits="userSpaceOnUse">
<stop stop-color="#992FED"/>
<stop offset="1" stop-color="#2F80ED"/>
</linearGradient>
</defs>
</svg>
