<svg width="200" height="36" viewBox="0 0 200 36" fill="none" xmlns="http://www.w3.org/2000/svg">
<g clip-path="url(#clip0_2834_263)">
<path d="M5 4.5H32C32.3978 4.5 32.7794 4.65804 33.0607 4.93934C33.342 5.22064 33.5 5.60218 33.5 6V30C33.5 30.3978 33.342 30.7794 33.0607 31.0607C32.7794 31.342 32.3978 31.5 32 31.5H5C4.60218 31.5 4.22064 31.342 3.93934 31.0607C3.65804 30.7794 3.5 30.3978 3.5 30V6C3.5 5.60218 3.65804 5.22064 3.93934 4.93934C4.22064 4.65804 4.60218 4.5 5 4.5ZM6.5 7.5V28.5H30.5V7.5H6.5ZM18.5 22.5H27.5V25.5H18.5V22.5ZM13.5005 18L9.257 13.758L11.3795 11.6355L17.7425 18L11.3795 24.3645L9.257 22.242L13.5005 18Z" fill="black"/>
</g>
<path d="M45.592 24L48.79 5.8H51.26L48.062 24H45.592ZM61.048 12.222C60.4413 12.222 59.7827 12.4473 59.072 12.898C58.3613 13.3487 57.7027 14.0507 57.096 15.004C56.5067 15.94 56.082 17.1447 55.822 18.618L54.886 24H52.546L54.912 10.48H57.174L56.602 13.6C57.1393 12.56 57.8587 11.728 58.76 11.104C59.6787 10.48 60.6407 10.168 61.646 10.168C62.8247 10.168 63.7693 10.532 64.48 11.26C65.1907 11.9707 65.546 12.846 65.546 13.886C65.546 14.3193 65.494 14.8653 65.39 15.524L63.908 24H61.568L62.998 15.914C63.0847 15.498 63.1367 15.1947 63.154 15.004C63.1713 14.796 63.18 14.6053 63.18 14.432C63.18 13.756 62.9807 13.2187 62.582 12.82C62.2007 12.4213 61.6893 12.222 61.048 12.222ZM68.3245 10.974H70.7165L71.9645 6.71H73.7585L73.0045 10.974H76.7485L76.4105 13.002H72.6405L71.5485 19.32C71.5139 19.5107 71.4879 19.6927 71.4705 19.866C71.4532 20.022 71.4445 20.1693 71.4445 20.308C71.4445 20.9147 71.6265 21.3913 71.9905 21.738C72.3545 22.0673 72.8312 22.232 73.4205 22.232C73.9232 22.232 74.3479 22.1627 74.6945 22.024C75.0412 21.868 75.3532 21.712 75.6305 21.556L75.9165 23.584C75.5872 23.7747 75.1712 23.9393 74.6685 24.078C74.1832 24.234 73.6372 24.312 73.0305 24.312C72.3892 24.312 71.7652 24.182 71.1585 23.922C70.5692 23.662 70.0839 23.2547 69.7025 22.7C69.3212 22.128 69.1305 21.3913 69.1305 20.49C69.1305 20.1087 69.1652 19.684 69.2345 19.216L70.3005 13.002H67.9865L68.3245 10.974ZM83.5829 24.312C82.4389 24.312 81.4249 24.0693 80.5409 23.584C79.6742 23.0813 78.9895 22.3707 78.4869 21.452C78.0015 20.516 77.7589 19.4153 77.7589 18.15C77.7589 16.7113 78.0535 15.3853 78.6429 14.172C79.2495 12.9587 80.0989 11.988 81.1909 11.26C82.3002 10.532 83.5915 10.168 85.0649 10.168C86.0702 10.168 86.9195 10.3587 87.6129 10.74C88.3235 11.1213 88.8695 11.6153 89.2509 12.222C89.6322 12.8287 89.8229 13.4787 89.8229 14.172C89.8229 15.1253 89.5975 15.914 89.1469 16.538C88.6962 17.162 88.1155 17.6473 87.4049 17.994C86.6942 18.3233 85.9229 18.5573 85.0909 18.696C84.2762 18.8347 83.4962 18.904 82.7509 18.904C82.2829 18.904 81.8149 18.8867 81.3469 18.852C80.8962 18.8 80.4975 18.748 80.1509 18.696C80.2895 19.84 80.6969 20.7153 81.3729 21.322C82.0489 21.9287 82.9155 22.232 83.9729 22.232C84.8395 22.232 85.6109 22.1193 86.2869 21.894C86.9629 21.6687 87.5349 21.4433 88.0029 21.218L88.2109 23.298C87.6909 23.5407 87.0322 23.7747 86.2349 24C85.4375 24.208 84.5535 24.312 83.5829 24.312ZM84.8829 12.144C84.0682 12.144 83.3315 12.352 82.6729 12.768C82.0142 13.1667 81.4682 13.7213 81.0349 14.432C80.6189 15.1253 80.3415 15.9227 80.2029 16.824C80.6015 16.8933 81.0002 16.954 81.3989 17.006C81.8149 17.0407 82.2655 17.058 82.7509 17.058C84.2069 17.058 85.3595 16.8587 86.2089 16.46C87.0582 16.044 87.4829 15.342 87.4829 14.354C87.4829 13.7473 87.2402 13.2273 86.7549 12.794C86.2869 12.3607 85.6629 12.144 84.8829 12.144ZM93.3219 14.276C93.3392 14.1893 93.3479 14.094 93.3479 13.99C93.3652 13.8687 93.3739 13.7473 93.3739 13.626C93.3739 13.1407 93.2352 12.8027 92.9579 12.612C92.6806 12.404 92.3166 12.3 91.8659 12.3L92.6719 10.48C93.5906 10.48 94.2926 10.7053 94.7779 11.156C95.2806 11.5893 95.5319 12.2393 95.5319 13.106V13.626C96.0346 12.3953 96.6759 11.5113 97.4559 10.974C98.2532 10.4367 99.1546 10.168 100.16 10.168C100.559 10.168 100.897 10.2027 101.174 10.272C101.469 10.324 101.711 10.3933 101.902 10.48L100.862 12.768C100.654 12.6813 100.437 12.6207 100.212 12.586C99.9866 12.5513 99.7266 12.534 99.4319 12.534C98.8079 12.534 98.1839 12.7593 97.5599 13.21C96.9532 13.6433 96.3986 14.3713 95.8959 15.394C95.4106 16.4167 95.0119 17.8207 94.6999 19.606L93.9459 24H91.6059L93.3219 14.276ZM118.731 12.222C118.159 12.222 117.535 12.4387 116.859 12.872C116.183 13.3053 115.568 13.9813 115.013 14.9C114.458 15.8013 114.051 16.9713 113.791 18.41L112.803 24H110.463L111.945 15.914C112.032 15.498 112.084 15.1947 112.101 15.004C112.118 14.796 112.127 14.6053 112.127 14.432C112.127 13.756 111.928 13.2187 111.529 12.82C111.148 12.4213 110.645 12.222 110.021 12.222C109.414 12.222 108.773 12.4473 108.097 12.898C107.421 13.3487 106.806 14.0507 106.251 15.004C105.696 15.94 105.289 17.1447 105.029 18.618L104.093 24H101.753L104.119 10.48H106.381L105.809 13.6C106.329 12.56 107.031 11.728 107.915 11.104C108.816 10.48 109.744 10.168 110.697 10.168C111.772 10.168 112.638 10.4973 113.297 11.156C113.956 11.7973 114.328 12.612 114.415 13.6C115.004 12.5253 115.724 11.6847 116.573 11.078C117.44 10.4713 118.376 10.168 119.381 10.168C120.542 10.168 121.461 10.532 122.137 11.26C122.83 11.9707 123.177 12.846 123.177 13.886C123.177 14.3193 123.125 14.8653 123.021 15.524L121.513 24H119.173L120.655 15.914C120.742 15.498 120.794 15.1947 120.811 15.004C120.828 14.796 120.837 14.6053 120.837 14.432C120.837 13.756 120.638 13.2187 120.239 12.82C119.858 12.4213 119.355 12.222 118.731 12.222ZM131.317 24.312C130.173 24.312 129.159 24.0693 128.275 23.584C127.409 23.0813 126.724 22.3707 126.221 21.452C125.736 20.516 125.493 19.4153 125.493 18.15C125.493 16.7113 125.788 15.3853 126.377 14.172C126.984 12.9587 127.833 11.988 128.925 11.26C130.035 10.532 131.326 10.168 132.799 10.168C133.805 10.168 134.654 10.3587 135.347 10.74C136.058 11.1213 136.604 11.6153 136.985 12.222C137.367 12.8287 137.557 13.4787 137.557 14.172C137.557 15.1253 137.332 15.914 136.881 16.538C136.431 17.162 135.85 17.6473 135.139 17.994C134.429 18.3233 133.657 18.5573 132.825 18.696C132.011 18.8347 131.231 18.904 130.485 18.904C130.017 18.904 129.549 18.8867 129.081 18.852C128.631 18.8 128.232 18.748 127.885 18.696C128.024 19.84 128.431 20.7153 129.107 21.322C129.783 21.9287 130.65 22.232 131.707 22.232C132.574 22.232 133.345 22.1193 134.021 21.894C134.697 21.6687 135.269 21.4433 135.737 21.218L135.945 23.298C135.425 23.5407 134.767 23.7747 133.969 24C133.172 24.208 132.288 24.312 131.317 24.312ZM132.617 12.144C131.803 12.144 131.066 12.352 130.407 12.768C129.749 13.1667 129.203 13.7213 128.769 14.432C128.353 15.1253 128.076 15.9227 127.937 16.824C128.336 16.8933 128.735 16.954 129.133 17.006C129.549 17.0407 130 17.058 130.485 17.058C131.941 17.058 133.094 16.8587 133.943 16.46C134.793 16.044 135.217 15.342 135.217 14.354C135.217 13.7473 134.975 13.2273 134.489 12.794C134.021 12.3607 133.397 12.144 132.617 12.144ZM151.482 24.13C150.546 24.13 149.827 23.9047 149.324 23.454C148.839 22.986 148.596 22.258 148.596 21.27C148.094 22.102 147.461 22.8213 146.698 23.428C145.936 24.0173 145.052 24.312 144.046 24.312C143.18 24.312 142.365 24.0867 141.602 23.636C140.84 23.168 140.224 22.518 139.756 21.686C139.306 20.8367 139.08 19.8313 139.08 18.67C139.08 17.3353 139.28 16.148 139.678 15.108C140.077 14.0507 140.606 13.158 141.264 12.43C141.94 11.702 142.677 11.1473 143.474 10.766C144.289 10.3673 145.112 10.168 145.944 10.168C146.863 10.168 147.652 10.3933 148.31 10.844C148.986 11.2947 149.506 11.8493 149.87 12.508L151.248 4.76H153.588L150.832 20.334C150.815 20.4207 150.798 20.5247 150.78 20.646C150.78 20.75 150.78 20.8627 150.78 20.984C150.78 21.4693 150.919 21.816 151.196 22.024C151.474 22.2147 151.838 22.31 152.288 22.31L151.482 24.13ZM144.67 22.232C145.329 22.232 145.953 22.024 146.542 21.608C147.149 21.192 147.669 20.6113 148.102 19.866C148.553 19.1033 148.865 18.2107 149.038 17.188L149.506 14.51C149.16 13.782 148.692 13.2187 148.102 12.82C147.513 12.404 146.863 12.196 146.152 12.196C145.355 12.196 144.592 12.4473 143.864 12.95C143.154 13.4353 142.573 14.1373 142.122 15.056C141.689 15.9573 141.472 17.0493 141.472 18.332C141.472 19.1813 141.62 19.9007 141.914 20.49C142.226 21.062 142.625 21.4953 143.11 21.79C143.613 22.0847 144.133 22.232 144.67 22.232ZM158.825 8.166C158.34 8.166 157.967 8.02733 157.707 7.75C157.465 7.45533 157.343 7.11733 157.343 6.736C157.343 6.18133 157.517 5.73933 157.863 5.41C158.21 5.06333 158.643 4.89 159.163 4.89C159.649 4.89 160.013 5.03733 160.255 5.332C160.515 5.60933 160.645 5.93867 160.645 6.32C160.645 6.85733 160.472 7.29933 160.125 7.646C159.779 7.99267 159.345 8.166 158.825 8.166ZM157.083 24H154.743L157.109 10.48H159.449L157.083 24ZM161.396 18.67C161.396 16.9887 161.76 15.5153 162.488 14.25C163.233 12.9673 164.256 11.9707 165.556 11.26C166.856 10.532 168.338 10.168 170.002 10.168C171.024 10.168 171.917 10.272 172.68 10.48C173.46 10.688 174.101 10.896 174.604 11.104L172.966 20.334C172.948 20.4207 172.931 20.5247 172.914 20.646C172.914 20.75 172.914 20.8627 172.914 20.984C172.914 21.4693 173.052 21.816 173.33 22.024C173.607 22.2147 173.971 22.31 174.422 22.31L173.616 24.13C172.68 24.13 171.96 23.9047 171.458 23.454C170.972 22.986 170.73 22.2667 170.73 21.296C170.244 22.128 169.629 22.8387 168.884 23.428C168.156 24.0173 167.298 24.312 166.31 24.312C165.46 24.312 164.663 24.0867 163.918 23.636C163.172 23.168 162.566 22.518 162.098 21.686C161.63 20.8367 161.396 19.8313 161.396 18.67ZM172.03 12.482C171.7 12.378 171.354 12.3 170.99 12.248C170.643 12.1787 170.218 12.144 169.716 12.144C168.52 12.144 167.48 12.4127 166.596 12.95C165.712 13.4873 165.018 14.2327 164.516 15.186C164.03 16.122 163.788 17.188 163.788 18.384C163.788 19.216 163.935 19.918 164.23 20.49C164.542 21.062 164.94 21.4953 165.426 21.79C165.911 22.0847 166.414 22.232 166.934 22.232C167.644 22.232 168.294 21.9893 168.884 21.504C169.473 21.0187 169.976 20.3427 170.392 19.476C170.825 18.6093 171.137 17.6213 171.328 16.512L172.03 12.482ZM177.25 10.974H179.642L180.89 6.71H182.684L181.93 10.974H185.674L185.336 13.002H181.566L180.474 19.32C180.44 19.5107 180.414 19.6927 180.396 19.866C180.379 20.022 180.37 20.1693 180.37 20.308C180.37 20.9147 180.552 21.3913 180.916 21.738C181.28 22.0673 181.757 22.232 182.346 22.232C182.849 22.232 183.274 22.1627 183.62 22.024C183.967 21.868 184.279 21.712 184.556 21.556L184.842 23.584C184.513 23.7747 184.097 23.9393 183.594 24.078C183.109 24.234 182.563 24.312 181.956 24.312C181.315 24.312 180.691 24.182 180.084 23.922C179.495 23.662 179.01 23.2547 178.628 22.7C178.247 22.128 178.056 21.3913 178.056 20.49C178.056 20.1087 178.091 19.684 178.16 19.216L179.226 13.002H176.912L177.25 10.974ZM192.509 24.312C191.365 24.312 190.351 24.0693 189.467 23.584C188.6 23.0813 187.915 22.3707 187.413 21.452C186.927 20.516 186.685 19.4153 186.685 18.15C186.685 16.7113 186.979 15.3853 187.569 14.172C188.175 12.9587 189.025 11.988 190.117 11.26C191.226 10.532 192.517 10.168 193.991 10.168C194.996 10.168 195.845 10.3587 196.539 10.74C197.249 11.1213 197.795 11.6153 198.177 12.222C198.558 12.8287 198.749 13.4787 198.749 14.172C198.749 15.1253 198.523 15.914 198.073 16.538C197.622 17.162 197.041 17.6473 196.331 17.994C195.62 18.3233 194.849 18.5573 194.017 18.696C193.202 18.8347 192.422 18.904 191.677 18.904C191.209 18.904 190.741 18.8867 190.273 18.852C189.822 18.8 189.423 18.748 189.077 18.696C189.215 19.84 189.623 20.7153 190.299 21.322C190.975 21.9287 191.841 22.232 192.899 22.232C193.765 22.232 194.537 22.1193 195.213 21.894C195.889 21.6687 196.461 21.4433 196.929 21.218L197.137 23.298C196.617 23.5407 195.958 23.7747 195.161 24C194.363 24.208 193.479 24.312 192.509 24.312ZM193.809 12.144C192.994 12.144 192.257 12.352 191.599 12.768C190.94 13.1667 190.394 13.7213 189.961 14.432C189.545 15.1253 189.267 15.9227 189.129 16.824C189.527 16.8933 189.926 16.954 190.325 17.006C190.741 17.0407 191.191 17.058 191.677 17.058C193.133 17.058 194.285 16.8587 195.135 16.46C195.984 16.044 196.409 15.342 196.409 14.354C196.409 13.7473 196.166 13.2273 195.681 12.794C195.213 12.3607 194.589 12.144 193.809 12.144Z" fill="#2B2F34"/>
<defs>
<clipPath id="clip0_2834_263">
<rect width="36" height="36" fill="white" transform="translate(0.5)"/>
</clipPath>
</defs>
</svg>
