<svg width="231" height="27" viewBox="0 0 231 27" fill="none" xmlns="http://www.w3.org/2000/svg">
<path d="M12.2609 26.432C10.3889 26.432 8.72086 26.096 7.25686 25.424C5.79286 24.728 4.54486 23.792 3.51286 22.616C2.50486 21.416 1.72486 20.024 1.17286 18.44C0.644856 16.856 0.380856 15.164 0.380856 13.364C0.380856 10.892 0.848856 8.684 1.78486 6.74C2.74486 4.772 4.11286 3.224 5.88886 2.096C7.66486 0.943999 9.78886 0.368 12.2609 0.368C14.1089 0.368 15.7649 0.704 17.2289 1.376C18.7169 2.048 19.9769 2.984 21.0089 4.184C22.0409 5.384 22.8209 6.764 23.3489 8.324C23.9009 9.884 24.1769 11.564 24.1769 13.364C24.1769 15.164 23.9009 16.856 23.3489 18.44C22.8209 20.024 22.0409 21.416 21.0089 22.616C19.9769 23.792 18.7289 24.728 17.2649 25.424C15.8009 26.096 14.1329 26.432 12.2609 26.432ZM12.2609 23.48C14.1089 23.48 15.6569 23.036 16.9049 22.148C18.1529 21.26 19.0889 20.06 19.7129 18.548C20.3609 17.012 20.6849 15.284 20.6849 13.364C20.6849 12.068 20.4929 10.82 20.1089 9.62C19.7249 8.42 19.1729 7.352 18.4529 6.416C17.7329 5.456 16.8449 4.7 15.7889 4.148C14.7569 3.596 13.5809 3.32 12.2609 3.32C10.5089 3.32 8.99686 3.764 7.72486 4.652C6.47686 5.54 5.51686 6.74 4.84486 8.252C4.19686 9.764 3.87286 11.468 3.87286 13.364C3.87286 14.66 4.05286 15.92 4.41286 17.144C4.79686 18.344 5.34886 19.424 6.06886 20.384C6.78886 21.344 7.66486 22.1 8.69686 22.652C9.75286 23.204 10.9409 23.48 12.2609 23.48ZM37.4516 26.432C34.5476 26.432 32.2676 25.568 30.6116 23.84C28.9556 22.112 28.1276 19.64 28.1276 16.424V0.799998H31.5476V15.884C31.5476 18.284 32.0396 20.144 33.0236 21.464C34.0076 22.784 35.4836 23.444 37.4516 23.444C39.4916 23.444 41.0156 22.808 42.0236 21.536C43.0316 20.24 43.5356 18.356 43.5356 15.884V0.799998H46.8476V16.28C46.8476 18.392 46.4516 20.216 45.6596 21.752C44.8916 23.264 43.7996 24.428 42.3836 25.244C40.9916 26.036 39.3476 26.432 37.4516 26.432ZM66.9328 26.432L63.8008 19.592C63.0088 17.888 62.0128 16.676 60.8128 15.956C59.6128 15.236 58.0768 14.876 56.2048 14.876H55.6648V26H52.2448V0.872C53.5168 0.752 54.7288 0.667999 55.8808 0.619998C57.0568 0.547999 58.3048 0.512 59.6248 0.512C62.6968 0.512 65.0008 1.136 66.5368 2.384C68.0968 3.632 68.8768 5.24 68.8768 7.208C68.8768 8.96 68.3488 10.376 67.2928 11.456C66.2608 12.512 64.7608 13.304 62.7928 13.832C63.4408 14.12 64.0168 14.468 64.5208 14.876C65.0248 15.26 65.5048 15.788 65.9608 16.46C66.4408 17.108 66.9208 17.96 67.4008 19.016L70.1368 24.92L66.9328 26.432ZM55.6648 11.996H59.6248C61.3528 11.996 62.7568 11.612 63.8368 10.844C64.9168 10.076 65.4568 8.972 65.4568 7.532C65.4568 6.332 64.9528 5.348 63.9448 4.58C62.9368 3.788 61.4968 3.392 59.6248 3.392C58.8088 3.392 58.0768 3.404 57.4288 3.428C56.7808 3.452 56.1928 3.488 55.6648 3.536V11.996ZM93.8605 26.432C91.6765 26.432 89.7445 25.916 88.0645 24.884C86.3845 23.828 85.0765 22.34 84.1405 20.42C83.2045 18.476 82.7365 16.172 82.7365 13.508C82.7365 10.94 83.2045 8.672 84.1405 6.704C85.1005 4.712 86.4445 3.164 88.1725 2.06C89.9245 0.931999 91.9645 0.368 94.2925 0.368C95.4925 0.368 96.5845 0.487999 97.5685 0.727999C98.5525 0.943999 99.4765 1.256 100.34 1.664L99.2965 4.544C98.5525 4.184 97.7845 3.896 96.9925 3.68C96.2245 3.464 95.3125 3.356 94.2565 3.356C92.7205 3.356 91.3405 3.752 90.1165 4.544C88.9165 5.336 87.9685 6.476 87.2725 7.964C86.5765 9.452 86.2285 11.252 86.2285 13.364C86.2285 15.38 86.5645 17.144 87.2365 18.656C87.9325 20.168 88.8805 21.344 90.0805 22.184C91.3045 23.024 92.6965 23.444 94.2565 23.444C95.4325 23.444 96.4525 23.3 97.3165 23.012C98.1805 22.724 99.0205 22.352 99.8365 21.896L100.88 24.74C99.9925 25.22 98.9725 25.628 97.8205 25.964C96.6925 26.276 95.3725 26.432 93.8605 26.432ZM114.186 26.432C112.314 26.432 110.646 26.096 109.182 25.424C107.718 24.728 106.47 23.792 105.438 22.616C104.43 21.416 103.65 20.024 103.098 18.44C102.57 16.856 102.306 15.164 102.306 13.364C102.306 10.892 102.774 8.684 103.71 6.74C104.67 4.772 106.038 3.224 107.814 2.096C109.59 0.943999 111.714 0.368 114.186 0.368C116.034 0.368 117.69 0.704 119.154 1.376C120.642 2.048 121.902 2.984 122.934 4.184C123.966 5.384 124.746 6.764 125.274 8.324C125.826 9.884 126.102 11.564 126.102 13.364C126.102 15.164 125.826 16.856 125.274 18.44C124.746 20.024 123.966 21.416 122.934 22.616C121.902 23.792 120.654 24.728 119.19 25.424C117.726 26.096 116.058 26.432 114.186 26.432ZM114.186 23.48C116.034 23.48 117.582 23.036 118.83 22.148C120.078 21.26 121.014 20.06 121.638 18.548C122.286 17.012 122.61 15.284 122.61 13.364C122.61 12.068 122.418 10.82 122.034 9.62C121.65 8.42 121.098 7.352 120.378 6.416C119.658 5.456 118.77 4.7 117.714 4.148C116.682 3.596 115.506 3.32 114.186 3.32C112.434 3.32 110.922 3.764 109.65 4.652C108.402 5.54 107.442 6.74 106.77 8.252C106.122 9.764 105.798 11.468 105.798 13.364C105.798 14.66 105.978 15.92 106.338 17.144C106.722 18.344 107.274 19.424 107.994 20.384C108.714 21.344 109.59 22.1 110.622 22.652C111.678 23.204 112.866 23.48 114.186 23.48ZM139.377 26.432C136.473 26.432 134.193 25.568 132.537 23.84C130.881 22.112 130.053 19.64 130.053 16.424V0.799998H133.473V15.884C133.473 18.284 133.965 20.144 134.949 21.464C135.933 22.784 137.409 23.444 139.377 23.444C141.417 23.444 142.941 22.808 143.949 21.536C144.957 20.24 145.461 18.356 145.461 15.884V0.799998H148.773V16.28C148.773 18.392 148.377 20.216 147.585 21.752C146.817 23.264 145.725 24.428 144.309 25.244C142.917 26.036 141.273 26.432 139.377 26.432ZM168.858 26.432L165.726 19.592C164.934 17.888 163.938 16.676 162.738 15.956C161.538 15.236 160.002 14.876 158.13 14.876H157.59V26H154.17V0.872C155.442 0.752 156.654 0.667999 157.806 0.619998C158.982 0.547999 160.23 0.512 161.55 0.512C164.622 0.512 166.926 1.136 168.462 2.384C170.022 3.632 170.802 5.24 170.802 7.208C170.802 8.96 170.274 10.376 169.218 11.456C168.186 12.512 166.686 13.304 164.718 13.832C165.366 14.12 165.942 14.468 166.446 14.876C166.95 15.26 167.43 15.788 167.886 16.46C168.366 17.108 168.846 17.96 169.326 19.016L172.062 24.92L168.858 26.432ZM157.59 11.996H161.55C163.278 11.996 164.682 11.612 165.762 10.844C166.842 10.076 167.382 8.972 167.382 7.532C167.382 6.332 166.878 5.348 165.87 4.58C164.862 3.788 163.422 3.392 161.55 3.392C160.734 3.392 160.002 3.404 159.354 3.428C158.706 3.452 158.118 3.488 157.59 3.536V11.996ZM182.113 26.432C180.361 26.432 178.765 26.204 177.325 25.748C175.885 25.268 174.673 24.644 173.689 23.876L175.417 20.996C176.281 21.716 177.253 22.304 178.333 22.76C179.413 23.216 180.673 23.444 182.113 23.444C183.841 23.444 185.209 23.084 186.217 22.364C187.225 21.644 187.729 20.672 187.729 19.448C187.729 18.752 187.585 18.14 187.297 17.612C187.009 17.06 186.445 16.532 185.605 16.028C184.789 15.5 183.577 14.936 181.969 14.336C180.241 13.664 178.861 12.992 177.829 12.32C176.797 11.624 176.053 10.844 175.597 9.98C175.165 9.092 174.949 8.048 174.949 6.848C174.949 5.648 175.273 4.568 175.921 3.608C176.593 2.624 177.565 1.844 178.837 1.268C180.133 0.667999 181.693 0.368 183.517 0.368C185.005 0.368 186.337 0.523999 187.513 0.835998C188.713 1.124 189.877 1.544 191.005 2.096L189.745 5.012C188.929 4.532 187.969 4.136 186.865 3.824C185.785 3.488 184.645 3.32 183.445 3.32C181.861 3.32 180.613 3.632 179.701 4.256C178.789 4.88 178.333 5.684 178.333 6.668C178.333 7.292 178.465 7.844 178.729 8.324C178.993 8.804 179.509 9.272 180.277 9.728C181.069 10.184 182.245 10.7 183.805 11.276C185.677 11.972 187.153 12.704 188.233 13.472C189.337 14.24 190.117 15.08 190.573 15.992C191.029 16.88 191.257 17.9 191.257 19.052C191.257 20.612 190.861 21.944 190.069 23.048C189.301 24.152 188.221 24.992 186.829 25.568C185.461 26.144 183.889 26.432 182.113 26.432ZM195.769 26V0.799998H210.889V3.752H199.189V11.42H209.269V14.3H199.189V23.048H210.889V26H195.769ZM221.462 26.432C219.71 26.432 218.114 26.204 216.674 25.748C215.234 25.268 214.022 24.644 213.038 23.876L214.766 20.996C215.63 21.716 216.602 22.304 217.682 22.76C218.762 23.216 220.022 23.444 221.462 23.444C223.19 23.444 224.558 23.084 225.566 22.364C226.574 21.644 227.078 20.672 227.078 19.448C227.078 18.752 226.934 18.14 226.646 17.612C226.358 17.06 225.794 16.532 224.954 16.028C224.138 15.5 222.926 14.936 221.318 14.336C219.59 13.664 218.21 12.992 217.178 12.32C216.146 11.624 215.402 10.844 214.946 9.98C214.514 9.092 214.298 8.048 214.298 6.848C214.298 5.648 214.622 4.568 215.27 3.608C215.942 2.624 216.914 1.844 218.186 1.268C219.482 0.667999 221.042 0.368 222.866 0.368C224.354 0.368 225.686 0.523999 226.862 0.835998C228.062 1.124 229.226 1.544 230.354 2.096L229.094 5.012C228.278 4.532 227.318 4.136 226.214 3.824C225.134 3.488 223.994 3.32 222.794 3.32C221.21 3.32 219.962 3.632 219.05 4.256C218.138 4.88 217.682 5.684 217.682 6.668C217.682 7.292 217.814 7.844 218.078 8.324C218.342 8.804 218.858 9.272 219.626 9.728C220.418 10.184 221.594 10.7 223.154 11.276C225.026 11.972 226.502 12.704 227.582 13.472C228.686 14.24 229.466 15.08 229.922 15.992C230.378 16.88 230.606 17.9 230.606 19.052C230.606 20.612 230.21 21.944 229.418 23.048C228.65 24.152 227.57 24.992 226.178 25.568C224.81 26.144 223.238 26.432 221.462 26.432Z" fill="#2F80ED"/>
</svg>
