<svg width="251" height="13" viewBox="0 0 251 13" fill="none" xmlns="http://www.w3.org/2000/svg">
<path d="M5.07181 12.192C4.06915 12.192 3.22115 11.9733 2.52781 11.536C1.83448 11.0987 1.30648 10.512 0.943812 9.776C0.581145 9.02933 0.399812 8.19733 0.399812 7.28C0.399812 6.42667 0.533145 5.60533 0.799812 4.816C1.06648 4.016 1.45581 3.30133 1.96781 2.672C2.49048 2.032 3.12515 1.53067 3.87181 1.168C4.61848 0.794666 5.47181 0.608 6.43181 0.608C7.43448 0.608 8.28248 0.826667 8.97581 1.264C9.66915 1.70133 10.1971 2.29333 10.5598 3.04C10.9225 3.776 11.1038 4.60267 11.1038 5.52C11.1038 6.37333 10.9705 7.2 10.7038 8C10.4371 8.78933 10.0425 9.504 9.51981 10.144C9.00781 10.7733 8.37848 11.2747 7.63181 11.648C6.88515 12.0107 6.03181 12.192 5.07181 12.192ZM6.30381 1.92C5.62115 1.92 5.00781 2.064 4.46381 2.352C3.93048 2.64 3.47715 3.03467 3.10381 3.536C2.73048 4.03733 2.44248 4.60267 2.23981 5.232C2.04781 5.86133 1.95181 6.512 1.95181 7.184C1.95181 7.86667 2.07448 8.49067 2.31981 9.056C2.56515 9.61067 2.92781 10.0533 3.40781 10.384C3.89848 10.7147 4.49581 10.88 5.19981 10.88C5.88248 10.88 6.49048 10.736 7.02381 10.448C7.56781 10.16 8.02648 9.76533 8.39981 9.264C8.77315 8.76267 9.05581 8.19733 9.24781 7.568C9.45048 6.93867 9.55181 6.288 9.55181 5.616C9.55181 4.93333 9.42915 4.31467 9.18381 3.76C8.93848 3.19467 8.57581 2.74667 8.09581 2.416C7.61581 2.08533 7.01848 1.92 6.30381 1.92ZM13.2498 0.943999L14.7698 0.624L16.7058 10.336L21.7938 0.672L23.1378 1.408L17.3298 12H15.5858L13.2498 0.943999ZM26.0509 0.799999H32.6909L32.4669 2.112H27.3309L26.7389 5.52H31.1389L30.9149 6.8H26.5149L25.8269 10.688H30.9469L30.7229 12H24.0829L26.0509 0.799999ZM35.9868 0.959999C36.4668 0.874666 36.9148 0.805333 37.3308 0.752C37.7575 0.698667 38.2535 0.672 38.8188 0.672C39.6295 0.672 40.3121 0.8 40.8668 1.056C41.4215 1.312 41.8428 1.65867 42.1308 2.096C42.4188 2.52267 42.5628 2.99733 42.5628 3.52C42.5628 4.49067 42.2535 5.22133 41.6348 5.712C41.0161 6.20267 40.2001 6.52267 39.1868 6.672C39.6241 6.864 39.9655 7.104 40.2108 7.392C40.4561 7.66933 40.6481 7.96267 40.7868 8.272C40.9255 8.58133 41.0375 8.88533 41.1228 9.184C41.2188 9.48267 41.3201 9.75467 41.4268 10C41.5335 10.2453 41.6828 10.4427 41.8748 10.592C42.0775 10.7307 42.3548 10.8 42.7068 10.8L42.1468 12.112C41.6775 12.112 41.2988 12.0213 41.0108 11.84C40.7228 11.6587 40.4881 11.424 40.3068 11.136C40.1361 10.8373 39.9815 10.512 39.8428 10.16C39.7148 9.79733 39.5761 9.44 39.4268 9.088C39.2775 8.72533 39.0855 8.4 38.8508 8.112C38.6161 7.81333 38.3015 7.57333 37.9068 7.392C37.5228 7.21067 37.0268 7.12 36.4188 7.12L35.5548 12H34.0348L35.9868 0.959999ZM38.7228 1.936C38.4455 1.936 38.1895 1.94667 37.9548 1.968C37.7308 1.98933 37.5175 2.02133 37.3148 2.064L36.6428 5.84H37.9708C38.9095 5.84 39.6561 5.648 40.2108 5.264C40.7761 4.88 41.0588 4.36267 41.0588 3.712C41.0588 3.18933 40.8508 2.76267 40.4348 2.432C40.0295 2.10133 39.4588 1.936 38.7228 1.936ZM53.2332 6.752L53.4252 5.584H53.9372C54.9825 5.584 55.8199 5.39733 56.4492 5.024C57.0785 4.64 57.3932 4.12267 57.3932 3.472C57.3932 2.98133 57.2225 2.592 56.8812 2.304C56.5505 2.00533 56.1239 1.856 55.6012 1.856C55.1105 1.856 54.6892 1.936 54.3372 2.096C53.9852 2.24533 53.6705 2.42133 53.3932 2.624L52.8332 1.536C53.2065 1.26933 53.6332 1.05067 54.1132 0.879999C54.6039 0.698666 55.1585 0.608 55.7772 0.608C56.4279 0.608 56.9825 0.730666 57.4412 0.976C57.9105 1.22133 58.2679 1.54667 58.5132 1.952C58.7585 2.34667 58.8812 2.77333 58.8812 3.232C58.8812 3.97867 58.6625 4.58667 58.2252 5.056C57.7879 5.51467 57.1479 5.872 56.3052 6.128C56.9772 6.36267 57.4945 6.70933 57.8572 7.168C58.2199 7.62667 58.4012 8.17067 58.4012 8.8C58.4012 9.48267 58.2252 10.08 57.8732 10.592C57.5212 11.104 57.0359 11.4987 56.4172 11.776C55.8092 12.0533 55.1105 12.192 54.3212 12.192C53.7132 12.192 53.1372 12.112 52.5932 11.952C52.0599 11.7813 51.6065 11.552 51.2332 11.264L52.0812 10.128C52.3479 10.352 52.6679 10.5387 53.0412 10.688C53.4145 10.8373 53.8412 10.912 54.3212 10.912C55.0465 10.912 55.6492 10.736 56.1292 10.384C56.6092 10.032 56.8492 9.52533 56.8492 8.864C56.8492 8.27733 56.6199 7.78133 56.1612 7.376C55.7025 6.96 54.9985 6.752 54.0492 6.752H53.2332ZM65.7069 12.192C64.6403 12.192 63.8243 11.8187 63.2589 11.072C62.7043 10.3147 62.4269 9.29067 62.4269 8C62.4269 7.104 62.5229 6.21867 62.7149 5.344C62.9069 4.45867 63.2003 3.664 63.5949 2.96C63.9896 2.24533 64.4909 1.67467 65.0989 1.248C65.7176 0.821333 66.4429 0.608 67.2749 0.608C68.3416 0.608 69.1523 0.986666 69.7069 1.744C70.2723 2.49067 70.5549 3.50933 70.5549 4.8C70.5549 5.696 70.4589 6.58667 70.2669 7.472C70.0749 8.34667 69.7816 9.14133 69.3869 9.856C68.9923 10.56 68.4856 11.1253 67.8669 11.552C67.2589 11.9787 66.5389 12.192 65.7069 12.192ZM65.8669 10.88C66.3789 10.88 66.8269 10.7147 67.2109 10.384C67.6056 10.0427 67.9363 9.584 68.2029 9.008C68.4696 8.432 68.6669 7.776 68.7949 7.04C68.9336 6.29333 69.0029 5.51467 69.0029 4.704C69.0029 3.808 68.8429 3.12 68.5229 2.64C68.2136 2.16 67.7443 1.92 67.1149 1.92C66.6029 1.92 66.1496 2.09067 65.7549 2.432C65.3709 2.76267 65.0456 3.216 64.7789 3.792C64.5123 4.368 64.3096 5.02933 64.1709 5.776C64.0429 6.512 63.9789 7.28533 63.9789 8.096C63.9789 8.992 64.1389 9.68 64.4589 10.16C64.7789 10.64 65.2483 10.88 65.8669 10.88ZM76.5807 12.192C75.514 12.192 74.698 11.8187 74.1327 11.072C73.578 10.3147 73.3007 9.29067 73.3007 8C73.3007 7.104 73.3967 6.21867 73.5887 5.344C73.7807 4.45867 74.074 3.664 74.4687 2.96C74.8634 2.24533 75.3647 1.67467 75.9727 1.248C76.5914 0.821333 77.3167 0.608 78.1487 0.608C79.2154 0.608 80.026 0.986666 80.5807 1.744C81.146 2.49067 81.4287 3.50933 81.4287 4.8C81.4287 5.696 81.3327 6.58667 81.1407 7.472C80.9487 8.34667 80.6554 9.14133 80.2607 9.856C79.866 10.56 79.3594 11.1253 78.7407 11.552C78.1327 11.9787 77.4127 12.192 76.5807 12.192ZM76.7407 10.88C77.2527 10.88 77.7007 10.7147 78.0847 10.384C78.4794 10.0427 78.81 9.584 79.0767 9.008C79.3434 8.432 79.5407 7.776 79.6687 7.04C79.8074 6.29333 79.8767 5.51467 79.8767 4.704C79.8767 3.808 79.7167 3.12 79.3967 2.64C79.0874 2.16 78.618 1.92 77.9887 1.92C77.4767 1.92 77.0234 2.09067 76.6287 2.432C76.2447 2.76267 75.9194 3.216 75.6527 3.792C75.386 4.368 75.1834 5.02933 75.0447 5.776C74.9167 6.512 74.8527 7.28533 74.8527 8.096C74.8527 8.992 75.0127 9.68 75.3327 10.16C75.6527 10.64 76.122 10.88 76.7407 10.88ZM88.7504 7.136L88.2864 9.728H86.9264L87.3904 7.136H84.9424L85.1504 5.888H87.5984L88.0624 3.28H89.4224L88.9584 5.888H91.3904L91.1824 7.136H88.7504ZM108.661 6.896H103.317L102.421 12H100.901L102.869 0.799999H104.389L103.541 5.584H108.885L109.733 0.799999H111.253L109.285 12H107.765L108.661 6.896ZM113.4 12L115.368 0.799999H116.888L114.92 12H113.4ZM120.991 0.959999C121.471 0.874666 121.919 0.805333 122.335 0.752C122.762 0.698667 123.258 0.672 123.823 0.672C124.634 0.672 125.317 0.8 125.871 1.056C126.426 1.312 126.847 1.65867 127.135 2.096C127.423 2.52267 127.567 2.99733 127.567 3.52C127.567 4.49067 127.258 5.22133 126.639 5.712C126.021 6.20267 125.205 6.52267 124.191 6.672C124.629 6.864 124.97 7.104 125.215 7.392C125.461 7.66933 125.653 7.96267 125.791 8.272C125.93 8.58133 126.042 8.88533 126.127 9.184C126.223 9.48267 126.325 9.75467 126.431 10C126.538 10.2453 126.687 10.4427 126.879 10.592C127.082 10.7307 127.359 10.8 127.711 10.8L127.151 12.112C126.682 12.112 126.303 12.0213 126.015 11.84C125.727 11.6587 125.493 11.424 125.311 11.136C125.141 10.8373 124.986 10.512 124.847 10.16C124.719 9.79733 124.581 9.44 124.431 9.088C124.282 8.72533 124.09 8.4 123.855 8.112C123.621 7.81333 123.306 7.57333 122.911 7.392C122.527 7.21067 122.031 7.12 121.423 7.12L120.559 12H119.039L120.991 0.959999ZM123.727 1.936C123.45 1.936 123.194 1.94667 122.959 1.968C122.735 1.98933 122.522 2.02133 122.319 2.064L121.647 5.84H122.975C123.914 5.84 124.661 5.648 125.215 5.264C125.781 4.88 126.063 4.36267 126.063 3.712C126.063 3.18933 125.855 2.76267 125.439 2.432C125.034 2.10133 124.463 1.936 123.727 1.936ZM130.257 12L132.225 0.799999H133.745L131.777 12H130.257ZM138.968 2.656L137.336 12H135.896L137.864 0.799999H139.88L143.16 10.208L144.824 0.799999H146.264L144.296 12H142.312L138.968 2.656ZM154.298 1.936C153.498 1.936 152.778 2.17067 152.138 2.64C151.498 3.10933 150.992 3.76 150.618 4.592C150.245 5.424 150.058 6.384 150.058 7.472C150.058 8.47467 150.298 9.29067 150.778 9.92C151.258 10.5493 151.92 10.864 152.762 10.864C153.253 10.864 153.706 10.7413 154.122 10.496C154.538 10.2507 154.89 9.91467 155.178 9.488C155.466 9.06133 155.658 8.58133 155.754 8.048L155.898 7.264H153.562L153.77 6.064H157.53L156.906 9.664C156.896 9.71733 156.885 9.78133 156.874 9.856C156.874 9.92 156.874 9.98933 156.874 10.064C156.874 10.352 156.954 10.56 157.114 10.688C157.285 10.816 157.52 10.88 157.818 10.88L157.29 12.08C156.117 12.08 155.53 11.5093 155.53 10.368C155.2 10.88 154.773 11.312 154.25 11.664C153.728 12.016 153.093 12.192 152.346 12.192C151.61 12.192 150.949 12.016 150.362 11.664C149.786 11.3013 149.328 10.784 148.986 10.112C148.656 9.42933 148.49 8.61867 148.49 7.68C148.49 6.66667 148.634 5.728 148.922 4.864C149.21 4 149.616 3.25333 150.138 2.624C150.661 1.984 151.28 1.488 151.994 1.136C152.72 0.784 153.514 0.608 154.378 0.608C155.061 0.608 155.664 0.704 156.186 0.896C156.709 1.07733 157.189 1.312 157.626 1.6L156.826 2.816C156.442 2.54933 156.053 2.336 155.658 2.176C155.274 2.016 154.821 1.936 154.298 1.936ZM168.297 0.959999C168.702 0.874666 169.134 0.805333 169.593 0.752C170.062 0.698667 170.58 0.672 171.145 0.672C172.009 0.672 172.729 0.826667 173.305 1.136C173.881 1.43467 174.308 1.83467 174.585 2.336C174.873 2.82667 175.017 3.35467 175.017 3.92C175.017 4.79467 174.804 5.53067 174.377 6.128C173.95 6.71467 173.364 7.16267 172.617 7.472C171.87 7.77067 171.022 7.92 170.073 7.92C169.817 7.92 169.561 7.90933 169.305 7.888C169.06 7.856 168.83 7.81333 168.617 7.76L167.881 12H166.361L168.297 0.959999ZM170.985 1.936C170.697 1.936 170.441 1.94667 170.217 1.968C170.004 1.98933 169.806 2.016 169.625 2.048L168.841 6.48C169.054 6.544 169.284 6.592 169.529 6.624C169.785 6.64533 170.036 6.656 170.281 6.656C171.422 6.656 172.249 6.416 172.761 5.936C173.273 5.456 173.529 4.84267 173.529 4.096C173.529 3.46667 173.305 2.94933 172.857 2.544C172.42 2.13867 171.796 1.936 170.985 1.936ZM174.99 11.408L181.134 0.799999H182.846L185.294 11.824L183.838 12.16L183.166 8.96H177.982L176.206 12.128L174.99 11.408ZM178.702 7.68H182.894L181.758 2.288L178.702 7.68ZM189.951 0.959999C190.431 0.874666 190.879 0.805333 191.295 0.752C191.722 0.698667 192.218 0.672 192.783 0.672C193.594 0.672 194.277 0.8 194.831 1.056C195.386 1.312 195.807 1.65867 196.095 2.096C196.383 2.52267 196.527 2.99733 196.527 3.52C196.527 4.49067 196.218 5.22133 195.599 5.712C194.981 6.20267 194.165 6.52267 193.151 6.672C193.589 6.864 193.93 7.104 194.175 7.392C194.421 7.66933 194.613 7.96267 194.751 8.272C194.89 8.58133 195.002 8.88533 195.087 9.184C195.183 9.48267 195.285 9.75467 195.391 10C195.498 10.2453 195.647 10.4427 195.839 10.592C196.042 10.7307 196.319 10.8 196.671 10.8L196.111 12.112C195.642 12.112 195.263 12.0213 194.975 11.84C194.687 11.6587 194.453 11.424 194.271 11.136C194.101 10.8373 193.946 10.512 193.807 10.16C193.679 9.79733 193.541 9.44 193.391 9.088C193.242 8.72533 193.05 8.4 192.815 8.112C192.581 7.81333 192.266 7.57333 191.871 7.392C191.487 7.21067 190.991 7.12 190.383 7.12L189.519 12H187.999L189.951 0.959999ZM192.687 1.936C192.41 1.936 192.154 1.94667 191.919 1.968C191.695 1.98933 191.482 2.02133 191.279 2.064L190.607 5.84H191.935C192.874 5.84 193.621 5.648 194.175 5.264C194.741 4.88 195.023 4.36267 195.023 3.712C195.023 3.18933 194.815 2.76267 194.399 2.432C193.994 2.10133 193.423 1.936 192.687 1.936ZM199.376 0.799999H207.776L207.536 2.144H204.096L202.368 12H200.848L202.576 2.144H199.136L199.376 0.799999ZM211.787 2.656L210.155 12H208.715L210.683 0.799999H212.699L215.979 10.208L217.643 0.799999H219.083L217.115 12H215.131L211.787 2.656ZM223.198 0.799999H229.838L229.614 2.112H224.478L223.886 5.52H228.286L228.062 6.8H223.662L222.974 10.688H228.094L227.87 12H221.23L223.198 0.799999ZM233.134 0.959999C233.614 0.874666 234.062 0.805333 234.478 0.752C234.904 0.698667 235.4 0.672 235.966 0.672C236.776 0.672 237.459 0.8 238.014 1.056C238.568 1.312 238.99 1.65867 239.278 2.096C239.566 2.52267 239.71 2.99733 239.71 3.52C239.71 4.49067 239.4 5.22133 238.782 5.712C238.163 6.20267 237.347 6.52267 236.334 6.672C236.771 6.864 237.112 7.104 237.358 7.392C237.603 7.66933 237.795 7.96267 237.934 8.272C238.072 8.58133 238.184 8.88533 238.27 9.184C238.366 9.48267 238.467 9.75467 238.574 10C238.68 10.2453 238.83 10.4427 239.022 10.592C239.224 10.7307 239.502 10.8 239.854 10.8L239.294 12.112C238.824 12.112 238.446 12.0213 238.158 11.84C237.87 11.6587 237.635 11.424 237.454 11.136C237.283 10.8373 237.128 10.512 236.99 10.16C236.862 9.79733 236.723 9.44 236.574 9.088C236.424 8.72533 236.232 8.4 235.998 8.112C235.763 7.81333 235.448 7.57333 235.054 7.392C234.67 7.21067 234.174 7.12 233.566 7.12L232.702 12H231.182L233.134 0.959999ZM235.87 1.936C235.592 1.936 235.336 1.94667 235.102 1.968C234.878 1.98933 234.664 2.02133 234.462 2.064L233.79 5.84H235.118C236.056 5.84 236.803 5.648 237.358 5.264C237.923 4.88 238.206 4.36267 238.206 3.712C238.206 3.18933 237.998 2.76267 237.582 2.432C237.176 2.10133 236.606 1.936 235.87 1.936ZM247.903 9.168C247.903 8.86933 247.839 8.59733 247.711 8.352C247.594 8.10667 247.375 7.856 247.055 7.6C246.735 7.33333 246.277 7.03467 245.679 6.704C244.847 6.23467 244.255 5.77067 243.903 5.312C243.562 4.85333 243.391 4.26667 243.391 3.552C243.391 2.95467 243.546 2.43733 243.855 2C244.175 1.56267 244.618 1.22133 245.183 0.976C245.749 0.730666 246.399 0.608 247.135 0.608C247.807 0.608 248.415 0.693333 248.959 0.863999C249.503 1.024 250.01 1.24267 250.479 1.52L249.695 2.768C249.311 2.52267 248.906 2.32 248.479 2.16C248.063 2 247.573 1.92 247.007 1.92C246.378 1.92 245.871 2.05867 245.487 2.336C245.103 2.60267 244.911 2.95467 244.911 3.392C244.911 3.78667 245.045 4.13867 245.311 4.448C245.589 4.74667 246.095 5.09333 246.831 5.488C247.535 5.86133 248.074 6.22933 248.447 6.592C248.831 6.944 249.093 7.31733 249.231 7.712C249.381 8.10667 249.455 8.544 249.455 9.024C249.455 9.67467 249.285 10.24 248.943 10.72C248.613 11.1893 248.149 11.552 247.551 11.808C246.954 12.064 246.261 12.192 245.471 12.192C244.703 12.192 244.01 12.0907 243.391 11.888C242.773 11.6747 242.229 11.3813 241.759 11.008L242.751 9.776C243.114 10.1067 243.535 10.3733 244.015 10.576C244.506 10.768 245.045 10.864 245.631 10.864C246.325 10.864 246.874 10.7147 247.279 10.416C247.695 10.1067 247.903 9.69067 247.903 9.168Z" fill="url(#paint0_linear_0_1329)"/>
<defs>
<linearGradient id="paint0_linear_0_1329" x1="250.5" y1="16" x2="172.417" y2="-110.085" gradientUnits="userSpaceOnUse">
<stop stop-color="#992FED"/>
<stop offset="1" stop-color="#2F80ED"/>
</linearGradient>
</defs>
</svg>
